<svg xmlns="http://www.w3.org/2000/svg" width="410" height="404" viewBox="0 0 410 404" fill="none">
  <path d="M399.641 59.5246L215.643 388.545C211.844 395.338 202.084 395.378 198.228 388.618L10.5817 59.5563C6.38087 52.1896 12.6802 43.2665 21.0281 44.7586L205.223 77.6824C206.398 77.8924 207.601 77.8904 208.776 77.6763L389.119 44.8058C397.439 43.2894 403.768 52.1434 399.641 59.5246Z" fill="url(#paint0_linear_1_33)"/>
  <path d="M292.965 1.5744L156.801 28.2552C155.563 28.5005 154.384 29.0117 153.35 29.7585C152.316 30.5054 151.448 31.4726 150.799 32.5977C150.15 33.7229 149.734 34.9814 149.579 36.2885C149.424 37.5955 149.533 38.9227 149.899 40.1899L212.531 254.651C213.276 257.161 214.862 259.272 216.98 260.605C219.098 261.937 221.6 262.405 224.051 261.926L296.17 248.468C298.651 247.983 300.876 246.661 302.506 244.717C304.135 242.773 305.074 240.312 305.15 237.751L309.455 79.0358C309.531 76.4751 308.741 73.9653 307.205 71.9069C305.669 69.8484 303.474 68.3627 300.995 67.7089L297.639 66.8286C296.361 66.5001 295.172 65.8941 294.181 65.0616C293.191 64.2291 292.428 63.1947 291.95 62.0439L282.859 39.4914C282.289 38.0281 282.108 36.4405 282.337 34.8866C282.566 33.3327 283.198 31.8624 284.163 30.6247C285.128 29.387 286.394 28.4254 287.836 27.8291C289.279 27.2329 290.85 27.0217 292.386 27.2147L304.637 28.6746C307.803 29.0618 310.833 27.5563 312.44 24.8856L318.122 15.2748C318.906 13.9634 319.265 12.4317 319.145 10.9002C319.024 9.36876 318.43 7.90811 317.452 6.73812C316.474 5.56813 315.164 4.75349 313.728 4.41152C312.292 4.06955 310.807 4.21631 309.467 4.83016L292.965 1.5744Z" fill="url(#paint1_linear_1_33)"/>
  <defs>
    <linearGradient id="paint0_linear_1_33" x1="6.00017" y1="32.9999" x2="235" y2="344" gradientUnits="userSpaceOnUse">
      <stop stop-color="#41D1FF"/>
      <stop offset="1" stop-color="#BD34FE"/>
    </linearGradient>
    <linearGradient id="paint1_linear_1_33" x1="194.651" y1="8.81818" x2="236.076" y2="292.989" gradientUnits="userSpaceOnUse">
      <stop stop-color="#FFEA83"/>
      <stop offset="0.0833333" stop-color="#FFDD35"/>
      <stop offset="1" stop-color="#FFA800"/>
    </linearGradient>
  </defs>
</svg>
